<?xml version="1.0" encoding="iso-8859-1"?>
<!-- Generator: Adobe Illustrator 19.0.0, SVG Export Plug-In . SVG Version: 6.00 Build 0)  -->
<svg version="1.1" id="Layer_1" xmlns="http://www.w3.org/2000/svg" xmlns:xlink="http://www.w3.org/1999/xlink" x="0px" y="0px"
	 viewBox="0 0 512 512" style="enable-background:new 0 0 512 512;" xml:space="preserve">
<circle style="fill:#005C83;" cx="256" cy="256" r="256"/>
<path style="fill:#00263F;" d="M286.982,78.846l-60.947,285.861l127.882,127.882c79.727-33.034,139.135-105.181,154.291-192.517
	L286.982,78.846z"/>
<path style="fill:#FFCF35;" d="M286.982,78.846H139.461c0,0-31.794,272.82,200.872,362.154l83.343-110.42
	C423.676,330.58,273.445,253.661,286.982,78.846z"/>
<path style="fill:#FFB344;" d="M423.676,330.58c0,0-150.231-76.918-136.694-251.733h-30.649v314.27
	c23.23,18.792,50.943,35.192,84,47.884L423.676,330.58z"/>
<path style="fill:#FF9451;" d="M336.856,412.757c-46.791-20.97-85.107-50.964-113.887-89.149
	c-22.995-30.513-39.937-66.24-50.352-106.19c-17.671-67.783-10.503-123.653-10.189-125.999l16.85,2.255l-8.425-1.127l8.426,1.122
	c-0.072,0.546-7.039,55.393,9.94,120.039c22.569,85.929,74.58,147.68,154.59,183.537L336.856,412.757z"/>
<path style="fill:#F7674F;" d="M343.81,397.243c-34.368-15.402-63.555-35.597-87.476-60.419v23.495
	c23.036,21.167,49.958,38.74,80.523,52.438L343.81,397.243z"/>
<g>
	<path style="fill:#FF9451;" d="M358.694,382.23c-41.081-19.964-75.068-47.562-101.018-82.028
		c-20.735-27.541-36.374-59.461-46.481-94.875c-17.163-60.135-12.475-109.039-12.267-111.091l16.914,1.714l-8.457-0.857l8.457,0.85
		c-0.047,0.476-4.552,48.208,11.869,105.308c21.833,75.92,68.401,131.666,138.412,165.689L358.694,382.23z"/>
	<polygon style="fill:#FF9451;" points="215.843,95.943 207.386,95.093 215.842,95.95 	"/>
</g>
<path style="fill:#F7674F;" d="M256.333,268.028v30.344c0.45,0.608,0.889,1.226,1.344,1.83
	c25.949,34.466,59.937,62.064,101.018,82.028l7.43-15.29C318.573,343.833,281.851,310.692,256.333,268.028z"/>
<path style="fill:#FF9451;" d="M387.897,354.148c-37.142-16.254-67.877-40.1-91.35-70.873
	c-18.724-24.548-32.846-53.486-41.975-86.011c-15.473-55.127-11.282-101.058-11.097-102.986l16.922,1.625c0,0.002,0,0.004,0,0.007
	l0,0c-0.07,0.761-4.003,45.342,10.696,97.307c19.549,69.11,61.141,118.016,123.619,145.357L387.897,354.148z"/>
<path style="fill:#F7674F;" d="M271.095,193.216c-14.699-51.965-10.767-96.546-10.696-97.307c0-0.003,0-0.005,0-0.007l-4.065-0.391
	v107.774c9.142,30.083,22.655,56.967,40.215,79.989c23.473,30.773,54.208,54.619,91.35,70.873l6.816-15.574
	C332.235,311.232,290.644,262.327,271.095,193.216z"/>
<g>
</g>
<g>
</g>
<g>
</g>
<g>
</g>
<g>
</g>
<g>
</g>
<g>
</g>
<g>
</g>
<g>
</g>
<g>
</g>
<g>
</g>
<g>
</g>
<g>
</g>
<g>
</g>
<g>
</g>
</svg>
